<?xml version="1.0" standalone="no"?><!DOCTYPE svg PUBLIC "-//W3C//DTD SVG 1.1//EN" "http://www.w3.org/Graphics/SVG/1.1/DTD/svg11.dtd"><svg t="1706426387318" class="icon" viewBox="0 0 1024 1024" version="1.1" xmlns="http://www.w3.org/2000/svg" p-id="1877" xmlns:xlink="http://www.w3.org/1999/xlink" width="200" height="200"><path d="M733.696 791.552c0 26.624-21.504 48.128-48.128 48.128H338.432c-26.624 0-48.128-21.504-48.128-48.128V280.064h443.904v511.488zM386.56 193.536c0-5.632 4.096-9.728 9.728-9.728h231.936c5.632 0 9.728 4.096 9.728 9.728v29.184H386.56v-29.184z m492.032 29.184h-182.784v-29.184c0-36.864-30.208-67.584-67.584-67.584H396.288c-36.864 0-67.584 30.208-67.584 67.584v29.184H145.408c-15.872 0-29.184 12.8-29.184 29.184 0 15.872 12.8 29.184 29.184 29.184h86.528v510.976c0 58.88 47.616 106.496 106.496 106.496h347.136c58.88 0 106.496-47.616 106.496-106.496v-512h86.528c15.872 0 29.184-12.8 29.184-29.184s-13.312-28.16-29.184-28.16zM512 752.64c15.872 0 29.184-12.8 29.184-29.184V414.72c0-15.872-12.8-29.184-29.184-29.184s-29.184 12.8-29.184 29.184v308.736c0 16.384 13.312 29.184 29.184 29.184m-135.168 0c15.872 0 29.184-12.8 29.184-29.184V414.72c0-15.872-12.8-29.184-29.184-29.184-15.872 0-29.184 12.8-29.184 29.184v308.736c0.512 16.384 13.312 29.184 29.184 29.184m270.336 0c15.872 0 29.184-12.8 29.184-29.184V414.72c0-15.872-12.8-29.184-29.184-29.184s-29.184 12.8-29.184 29.184v308.736c0.512 16.384 13.312 29.184 29.184 29.184" p-id="1878"></path></svg>