<?xml version="1.0" standalone="no"?><!DOCTYPE svg PUBLIC "-//W3C//DTD SVG 1.1//EN" "http://www.w3.org/Graphics/SVG/1.1/DTD/svg11.dtd"><svg t="1705421003408" class="icon" viewBox="0 0 1024 1024" version="1.1" xmlns="http://www.w3.org/2000/svg" p-id="3223" xmlns:xlink="http://www.w3.org/1999/xlink" width="200" height="200"><path d="M869.504 927.488h-808.533333a32.213333 32.213333 0 0 1-32.234667-32.213333 32.170667 32.170667 0 0 1 32.234667-32.234667h54.784V141.824a32.256 32.256 0 0 1 32-32.213333l408.661333-1.237334h0.128a32.234667 32.234667 0 0 1 22.762667 9.344A32.341333 32.341333 0 0 1 588.8 140.586667v336.298666l280.554667-0.576a32.170667 32.170667 0 0 1 22.762666 9.408 32.234667 32.234667 0 0 1 9.493334 22.826667v354.474667h54.784a32.149333 32.149333 0 0 1 32.213333 32.234666 32.192 32.192 0 0 1-32.213333 32.213334z m-280.597333-386.133333v321.685333h248.384V540.778667zM180.224 173.930667v689.066666h344.234667V172.821333z m100.928 421.824a32.192 32.192 0 0 1-32.234667-32.213334 32.192 32.192 0 0 1 32.234667-32.213333h142.378667a32.234667 32.234667 0 0 1 32.234666 32.213333 32.234667 32.234667 0 0 1-32.234666 32.213334z m0-128.896a32.213333 32.213333 0 0 1-32.234667-32.234667 32.213333 32.213333 0 0 1 32.234667-32.213333h142.378667a32.234667 32.234667 0 0 1 32.234666 32.213333 32.234667 32.234667 0 0 1-32.234666 32.234667z m0-128.917334a32.213333 32.213333 0 0 1-32.234667-32.213333 32.213333 32.213333 0 0 1 32.234667-32.234667h142.378667a32.234667 32.234667 0 0 1 32.234666 32.234667 32.234667 32.234667 0 0 1-32.234666 32.213333z"  p-id="3224"></path></svg>