<?xml version="1.0" standalone="no"?><!DOCTYPE svg PUBLIC "-//W3C//DTD SVG 1.1//EN" "http://www.w3.org/Graphics/SVG/1.1/DTD/svg11.dtd"><svg t="1705420963716" class="icon" viewBox="0 0 1024 1024" version="1.1" xmlns="http://www.w3.org/2000/svg" p-id="2673" xmlns:xlink="http://www.w3.org/1999/xlink" width="200" height="200"><path d="M930.5 315.5l-389-128.1V91.7c0-9.9-4.7-19.3-12.7-25.2-8-5.9-18.2-7.8-27.8-4.7L94.1 187.1C81 191.1 72 203.2 72 217v712.4c0 17.3 14 31.3 31.3 31.3h406.9c3.8 0 7.3-0.9 10.7-2.2 3.3 1.2 6.6 2.1 10.3 2.2l389.3 2.9h0.2c8.3 0 16.2-3.2 22.1-9.1 5.9-5.9 9.2-13.9 9.2-22.2V345.2c0-13.5-8.7-25.5-21.5-29.7zM478.9 898.1H134.6v-658l344.2-106v764z m410.5 2.7l-132-1V493.9c0-17.3-14-31.3-31.3-31.3s-31.3 14-31.3 31.3v405.4l-153.3-1.2V253.3l347.9 114.6v532.9z" p-id="2674"></path><path d="M215.2 445.9c2.4 0 4.9-0.3 7.3-0.9l182.9-44.1c16.8-4.1 27.2-21 23.1-37.8-4-16.8-20.9-27-37.8-23.1l-182.9 44.1c-16.8 4.1-27.2 21-23.1 37.8 3.6 14.4 16.4 24 30.5 24zM215.2 587.4c2.4 0 4.9-0.3 7.3-0.9l182.9-44.1c16.8-4.1 27.2-21 23.1-37.8-4-16.8-20.9-27.1-37.8-23.1l-182.9 44.1c-16.8 4.1-27.2 21-23.1 37.8 3.6 14.4 16.4 24 30.5 24zM215.2 729c2.4 0 4.9-0.3 7.3-0.9L405.4 684c16.8-4.1 27.2-21 23.1-37.8-4-16.8-20.9-26.9-37.8-23.1l-182.9 44.1c-16.8 4.1-27.2 21-23.1 37.8 3.6 14.4 16.4 24 30.5 24z" p-id="2675"></path></svg>