<?xml version="1.0" standalone="no"?><!DOCTYPE svg PUBLIC "-//W3C//DTD SVG 1.1//EN" "http://www.w3.org/Graphics/SVG/1.1/DTD/svg11.dtd"><svg t="1711269300075" class="icon" viewBox="0 0 1024 1024" version="1.1" xmlns="http://www.w3.org/2000/svg" p-id="10175" xmlns:xlink="http://www.w3.org/1999/xlink" width="200" height="200"><path d="M870.4 172.36992 563.2 172.36992l51.2 51.2 256 0c14.14144 0 25.6-11.45856 25.6-25.6S884.54144 172.36992 870.4 172.36992zM153.6 223.56992l256 0 51.2-51.2L153.6 172.36992c-14.14144 0-25.6 11.45856-25.6 25.6S139.45856 223.56992 153.6 223.56992zM153.6 382.01344l102.37952 0 51.2-51.2L153.6 330.81344c-14.14144 0-25.6 11.45856-25.6 25.6S139.45856 382.01344 153.6 382.01344zM870.4 330.81344 716.82048 330.81344l51.2 51.2L870.4 382.01344c14.14144 0 25.6-11.45856 25.6-25.6S884.54144 330.81344 870.4 330.81344zM198.08256 489.23648c-6.4 0-44.48256 0-44.48256 0-14.14144 0-25.6 11.45856-25.6 25.6s11.45856 25.6 25.6 25.6l122.85952 0 0-18.62656C276.45952 521.80992 198.08256 523.84768 198.08256 489.23648zM870.4 489.23648c0 0-23.63392 0-42.65984 0 0 32.3584-80.22016 30.72-80.22016 30.72l0 20.48 122.88 0c14.14144 0 25.6-11.45856 25.6-25.6S884.54144 489.23648 870.4 489.23648zM128 673.28c0 14.14144 11.45856 25.6 25.6 25.6l122.85952 0 0-51.2L153.6 647.68C139.45856 647.68 128 659.13856 128 673.28zM870.4 647.68 747.52 647.68l0 51.2 122.88 0c14.14144 0 25.6-11.45856 25.6-25.6S884.54144 647.68 870.4 647.68zM921.6 0 102.4 0C45.85472 0 0 45.84448 0 102.4l0 819.2 0 102.4c0 0 19.11808-0.01024 51.2-1.19808l0-51.28192L51.2 921.6l0-58.88L51.2 102.4c0-28.23168 22.96832-51.2 51.2-51.2l819.2 0c28.23168 0 51.2 22.96832 51.2 51.2l0 686.08 0 87.73632c-103.04512-19.26144-286.08512-37.18144-468.96128 26.56256-61.97248 21.59616-131.45088 34.7136-197.91872 44.9536l0 51.85536c71.15776-10.68032 146.71872-23.67488 213.76-48.11776C743.68 869.76512 1024 942.08 1024 942.08L1024 788.48 1024 102.4C1024 45.84448 978.15552 0 921.6 0zM793.4464 436.50048 567.6032 196.02432c-14.73536-15.7184-34.47808-24.3712-55.6032-24.3712l0 0c-21.10464 0-40.84736 8.6528-55.59296 24.3712L230.53312 436.50048c-21.54496 22.95808-18.7904 40.16128-15.23712 48.384 3.55328 8.21248 14.22336 21.99552 45.69088 21.99552l28.5184 0 0 195.4816c0 38.90176 31.65184 70.5536 70.5536 70.5536L512 772.9152l151.94112 0c38.912 0 70.56384-31.65184 70.56384-70.5536L734.50496 506.88l28.49792 0c31.488 0 42.14784-13.78304 45.71136-21.99552C812.25728 476.66176 815.01184 459.44832 793.4464 436.50048zM680.77568 453.1712 680.77568 702.3616c0 9.27744-7.54688 16.83456-16.8448 16.83456L512 719.19616 360.04864 719.19616c-9.28768 0-16.8448-7.54688-16.8448-16.83456L343.20384 453.1712 288.5632 453.1712l206.98112-220.38528c4.49536-4.78208 10.47552-7.17824 16.45568-7.17824 5.96992 0 11.95008 2.38592 16.44544 7.168l206.98112 220.39552L680.77568 453.1712zM369.3568 451.95264l0 232.83712L512 684.78976l142.63296 0L654.63296 451.95264 512 451.95264 369.3568 451.95264zM483.6864 631.0912l-60.6208 0 0-35.34848 60.6208 0L483.6864 631.0912zM483.6864 542.04416l-60.6208 0 0-36.38272 60.6208 0L483.6864 542.04416zM537.38496 505.66144l63.5392 0 0 36.38272-63.5392 0L537.38496 505.66144zM537.38496 595.74272l63.5392 0 0 35.34848-63.5392 0L537.38496 595.74272z"  p-id="10176"></path></svg>