<?xml version="1.0" standalone="no"?><!DOCTYPE svg PUBLIC "-//W3C//DTD SVG 1.1//EN" "http://www.w3.org/Graphics/SVG/1.1/DTD/svg11.dtd"><svg t="1705420980587" class="icon" viewBox="0 0 1024 1024" version="1.1" xmlns="http://www.w3.org/2000/svg" p-id="3085" xmlns:xlink="http://www.w3.org/1999/xlink" width="200" height="200"><path d="M934.438195 421.270603c-18.502399-1.678222-74.67577-13.710256-89.405239-45.833885-12.845563-27.965935 8.392134-67.408249 28.458145-95.573729l12.461823-17.498536L763.945149 133.835148l-18.564821 13.906731c-16.749476 12.559037-71.459518 45.049009-102.633518 30.248931-25.025976-11.906168-31.866778-54.790884-33.218566-88.652086l-0.975211-25.047466L415.090856 64.291259l-0.989537 25.042349c-1.343601 33.860179-8.18952 76.745918-33.206286 88.657202-31.117718 14.800078-85.903485-17.689894-102.645798-30.248931l-18.588357-13.93743L137.679709 262.36343l12.4608 17.502629c20.040429 28.120454 41.270962 67.524906 28.519544 95.485725-14.638395 32.06837-69.589938 44.023656-89.465614 45.922912l-23.707958 2.165316 0 78.425164-0.010233 0 0 95.952352 23.707958 2.164293c19.874653 1.90028 74.830289 13.860682 89.465614 45.925982 12.750395 27.957749-8.473999 67.3622-28.513404 95.477538L137.679709 758.89718l121.976052 128.556934 18.588357-13.938454c16.737196-12.559037 71.523987-45.052079 102.640682-30.257118 25.015743 11.917424 40.312124 54.340629 41.659819 88.204901l0 25.50386 178.535209 0 0-25.50386c1.353834-33.864272 16.641005-76.2885 41.657772-88.204901 31.179117-14.794961 85.888136 17.698081 102.642728 30.257118l18.564821 13.913894L885.947807 758.89718l-12.456706-17.510816c-20.075221-28.160363-41.313941-67.607794-28.468378-95.573729 14.734586-32.119535 70.90898-44.149523 89.410356-45.829791l23.712051-2.164293 0-95.173616 0.00614 0 0-79.204923L934.438195 421.270603zM919.893944 561.63956c-32.118512 6.79987-100.567463 15.175631-122.253368 62.420655-16.672728 36.346813 2.127454 79.118965 32.985252 128.866996l-76.514651 76.514651c-30.098505-18.252713-85.068468-56.340169-133.638673-33.32192-34.189683 16.189727-54.700833 65.454758-61.145615 121.447003l-95.036493 0c-6.439666-55.992245-26.954909-105.258299-61.151755-121.447003-48.544623-22.982434-106.653065 4.412496-136.76692 22.681582l-61.785182-65.123206c30.861892-49.748031 38.062897-93.270267 21.388123-129.618103-21.683858-47.245024-90.13588-55.620785-122.242112-62.420655l0-102.020558c32.111349-6.801916 100.567463-15.175631 122.257461-62.420655 16.667611-36.346813 9.468652-79.873142-21.393239-129.616056l61.784158-65.13344c30.108738 18.273179 88.212064 45.668109 136.767943 22.691815 68.775386-32.586163 57.653071-122.591059 57.653071-122.591059l102.020558 0c6.441713 55.993269 23.470551 106.397239 57.660234 122.591059 48.565089 23.017226 106.659205-4.433986 136.756687-22.691815l61.801555 65.13344c-30.861892 49.743938-38.061874 93.269243-21.400403 129.616056 21.685905 47.245024 90.14509 55.618738 122.253368 62.420655L919.893944 561.63956zM503.676427 317.805136c-107.792005 0-195.473997 87.716784-195.473997 195.550745 0 107.829867 83.065857 188.561563 190.857862 188.561563 107.782795 0 191.288674-83.457784 191.288674-191.286628C690.348967 402.796856 611.458199 317.805136 503.676427 317.805136zM499.086899 663.512762c-84.387969 0-153.032372-68.602448-153.032372-152.933111 0-84.334757 68.644403-152.936181 153.032372-152.936181 84.379783 0 153.025209 68.600401 153.025209 152.936181C652.112108 594.911338 583.466682 663.512762 499.086899 663.512762z"  p-id="3086"></path></svg>