<?xml version="1.0" standalone="no"?><!DOCTYPE svg PUBLIC "-//W3C//DTD SVG 1.1//EN" "http://www.w3.org/Graphics/SVG/1.1/DTD/svg11.dtd"><svg t="1705463243559" class="icon" viewBox="0 0 1156 1024" version="1.1" xmlns="http://www.w3.org/2000/svg" p-id="1128" xmlns:xlink="http://www.w3.org/1999/xlink" width="225.78125" height="200"><path d="M150.47190102 907.50781251a49.41210938 49.41210938 0 1 1-1e-8-98.87695314L974.4465104 808.63085936a49.46484375 49.46484375 0 0 1 0 98.87695315l-823.921875 0z m1e-8-346.09570314a49.41210938 49.41210938 0 1 1-1e-8-98.87695312L644.85666665 462.53515624a49.46484375 49.46484375 0 0 1 0 98.92968752l-494.38476563-1e-8z m717.18750002 118.01953126a8.2265625 8.2265625 0 0 1-13.81640626-6.01171875l-5.37890626-309.23437502a8.2265625 8.2265625 0 0 1 13.55273437-6.48632811L1034.66916665 503.03515625a16.50585938 16.50585938 0 0 1 0.47460939 24.78515624l-167.53710941 151.66406251z m-717.18750002-464.06250001a49.41210938 49.41210938 0 1 1 0-98.87695313L974.4465104 116.49218749a49.41210938 49.41210938 0 1 1 0 98.87695315l-823.92187502-1e-8z" p-id="1129"></path></svg>