<?xml version="1.0" standalone="no"?><!DOCTYPE svg PUBLIC "-//W3C//DTD SVG 1.1//EN" "http://www.w3.org/Graphics/SVG/1.1/DTD/svg11.dtd"><svg t="1707465326127" class="icon" viewBox="0 0 1024 1024" version="1.1" xmlns="http://www.w3.org/2000/svg" p-id="1491" xmlns:xlink="http://www.w3.org/1999/xlink" width="200" height="200"><path d="M843.559471 59.191809h-141.792118V23.164662a23.225622 23.225622 0 0 0-23.225622-23.164662H346.677462a23.225622 23.225622 0 0 0-23.225622 23.164662v36.027147H180.379569A120.639124 120.639124 0 0 0 59.801405 179.830932v723.590904a120.639124 120.639124 0 0 0 120.578164 120.578164h663.301822a120.639124 120.639124 0 0 0 120.578164-120.578164V179.526134a120.639124 120.639124 0 0 0-120.700084-120.334325z m29.138707 844.230027a29.199667 29.199667 0 0 1-29.138707 29.138707H180.379569a29.199667 29.199667 0 0 1-29.138707-29.138707V179.526134a29.199667 29.199667 0 0 1 29.138707-29.199667h143.19419v12.740565a23.286582 23.286582 0 0 0 23.225622 23.225622h331.864269a23.286582 23.286582 0 0 0 23.225623-23.225622v-12.740565h141.792118a29.199667 29.199667 0 0 1 29.138707 29.199667z" p-id="1492"></path><path d="M621.727348 568.570544H557.658769v-35.478509h44.744374a45.719729 45.719729 0 0 0 0-91.439457H588.809144l48.76771-59.862365a45.719729 45.719729 0 1 0-70.835099-57.850696l-54.863674 67.055601-54.863675-67.055601a45.719729 45.719729 0 0 0-70.835099 57.789736l48.767711 59.923325h-14.264556a45.719729 45.719729 0 0 0 0 91.439457h44.805334v35.173711H401.358257a45.719729 45.719729 0 0 0 0 91.439457h64.129539v70.042624a45.719729 45.719729 0 1 0 91.439457 0v-70.042624h64.06858a45.719729 45.719729 0 0 0 0-91.439457z" p-id="1493"></path></svg>