<?xml version="1.0" standalone="no"?><!DOCTYPE svg PUBLIC "-//W3C//DTD SVG 1.1//EN" "http://www.w3.org/Graphics/SVG/1.1/DTD/svg11.dtd"><svg t="1707465333318" class="icon" viewBox="0 0 1024 1024" version="1.1" xmlns="http://www.w3.org/2000/svg" p-id="1630" xmlns:xlink="http://www.w3.org/1999/xlink" width="200" height="200"><path d="M512 179.7c44.9 0 88.4 8.8 129.3 26.1 39.6 16.7 75.1 40.7 105.7 71.2s54.5 66.1 71.2 105.7c17.3 40.9 26.1 84.5 26.1 129.3s-8.8 88.4-26.1 129.3c-16.7 39.6-40.7 75.1-71.2 105.7s-66.1 54.5-105.7 71.2c-40.9 17.3-84.5 26.1-129.3 26.1s-88.4-8.8-129.3-26.1c-39.6-16.7-75.1-40.7-105.7-71.2s-54.5-66.1-71.2-105.7c-17.3-40.9-26.1-84.5-26.1-129.3s8.8-88.4 26.1-129.3c16.7-39.6 40.7-75.1 71.2-105.7s66.1-54.5 105.7-71.2c40.9-17.4 84.4-26.1 129.3-26.1m0-50c-211.2 0-382.3 171.2-382.3 382.3S300.8 894.3 512 894.3 894.3 723.2 894.3 512 723.2 129.7 512 129.7z" p-id="1631"></path><path d="M632.5 306.4c10.3-9.1 26.2-8.1 35.3 2.3 9.1 10.3 8.1 26.2-2.3 35.3l-112.4 92.5c-0.9 0.8-1.8 1.5-2.8 2.1h131.2c13.8 0 25 11.3 25 25 0 13.8-11.2 25-25 25H541.7v65h139.8c13.8 0 25 11.3 25 25 0 13.8-11.2 25-25 25H541.7v129.5c0 13.8-11.3 25-25 25s-25-11.2-25-25V603.6H358.5c-13.8 0-25-11.2-25-25s11.3-25 25-25h133.2v-65H358.5c-13.8 0-25-11.2-25-25s11.3-25 25-25H477c-0.2-0.2-0.4-0.3-0.6-0.5L374 345.6c-10.3-9.1-11.3-25-2.3-35.3 9.1-10.3 25-11.3 35.3-2.3l102.4 92.5c1.3 1.2 2.5 2.4 3.5 3.8l2.7-0.3c1.2-1.9 2.7-3.6 4.5-5.2" p-id="1632"></path></svg>