<?xml version="1.0" standalone="no"?><!DOCTYPE svg PUBLIC "-//W3C//DTD SVG 1.1//EN" "http://www.w3.org/Graphics/SVG/1.1/DTD/svg11.dtd"><svg t="1711384732344" class="icon" viewBox="0 0 1024 1024" version="1.1" xmlns="http://www.w3.org/2000/svg" p-id="16572" xmlns:xlink="http://www.w3.org/1999/xlink" width="200" height="200"><path d="M1014.83517 162.662a31.18 31.18 0 0 0-22.067-9.062H31.23217A31.232 31.232 0 0 0 0.00017 184.576v654.797A30.925 30.925 0 0 0 31.23217 870.4h961.536A31.078 31.078 0 0 0 1024.00017 839.373V184.576a30.976 30.976 0 0 0-9.165-21.914zM972.80017 819.252H51.20017v-614.4h921.6v614.4z m-102.349-460.8h-307.2v51.2h307.2v-51.2z m-153.6 153.6h-153.6v51.2h153.6v-51.2z" fill="" p-id="16573"></path><path d="M309.35017 587.674a110.182 110.182 0 0 1-68.915-24.781 121.446 121.446 0 0 1-44.646-95.027c0-66.048 50.944-119.757 113.561-119.757s113.562 53.709 113.562 119.757a121.344 121.344 0 0 1-44.646 95.027 110.848 110.848 0 0 1-68.916 24.78z m0-188.416c-34.355 0-62.361 30.77-62.361 68.556 0 21.556 9.574 42.24 25.651 55.245a57.14 57.14 0 0 0 73.37-0.051c16.025-12.954 25.6-33.587 25.6-55.194 0.102-37.785-27.853-68.556-62.26-68.556z" fill="" p-id="16574"></path><path d="M435.30217 691.814c-0.768-53.606-28.416-101.478-72.192-125.081l24.27-45.056c60.16 32.358 98.15 97.331 99.174 169.472l-51.252 0.665z m-256.204 0l-51.2-0.716c0.972-72.141 38.963-137.063 99.123-169.472l24.269 45.056c-43.828 23.603-71.476 71.577-72.192 125.132z" fill="" p-id="16575"></path></svg>