<?xml version="1.0" standalone="no"?><!DOCTYPE svg PUBLIC "-//W3C//DTD SVG 1.1//EN" "http://www.w3.org/Graphics/SVG/1.1/DTD/svg11.dtd"><svg t="1711341473375" class="icon" viewBox="0 0 1082 1024" version="1.1" xmlns="http://www.w3.org/2000/svg" p-id="3635" xmlns:xlink="http://www.w3.org/1999/xlink" width="211.328125" height="200"><path d="M556.373 1024a130.053 130.053 0 0 1-80.533-27.947l-3.187-3.187L225.785 764.26H116.938A117.06 117.06 0 0 1 0 647.324V377.657a117.06 117.06 0 0 1 116.938-117.06h108.847L474.369 29.418a128.827 128.827 0 0 1 135.814-17.16A127.602 127.602 0 0 1 685.2 124.66v770.145a97.08 97.08 0 0 1-0.858 13.728 125.886 125.886 0 0 1-77.1 104.925 129.073 129.073 0 0 1-50.87 10.542z m-33.586-84.577a56.875 56.875 0 0 0 55.404 6.619 53.443 53.443 0 0 0 33.218-45.353V125.518a54.546 54.546 0 0 0-31.624-46.824 55.527 55.527 0 0 0-57.856 7.11L254.713 334.141H116.938a43.514 43.514 0 0 0-43.392 43.515v269.667a43.514 43.514 0 0 0 43.392 43.392H254.59z m340.516 1.838a36.773 36.773 0 0 1-23.657-64.965 478.046 478.046 0 0 0 119.389-150.769 474.37 474.37 0 0 0 0-426.442 481.233 481.233 0 0 0-120.493-151.258 36.773 36.773 0 1 1 47.07-56.385 553.553 553.553 0 0 1 138.51 174.425 547.547 547.547 0 0 1 0 492.633A553.553 553.553 0 0 1 886.96 932.68a36.773 36.773 0 0 1-23.657 8.581zM748.327 770.758a36.773 36.773 0 0 1-23.29-65.21 248.094 248.094 0 0 0 91.197-192.445 249.32 249.32 0 0 0-93.036-194.405 36.773 36.773 0 1 1 45.844-57.366 322.252 322.252 0 0 1 3.187 501.09 36.773 36.773 0 0 1-23.902 8.336z" fill="#AAAAAA" p-id="3636"></path></svg>