<?xml version="1.0" standalone="no"?><!DOCTYPE svg PUBLIC "-//W3C//DTD SVG 1.1//EN" "http://www.w3.org/Graphics/SVG/1.1/DTD/svg11.dtd"><svg t="1706426379680" class="icon" viewBox="0 0 1024 1024" version="1.1" xmlns="http://www.w3.org/2000/svg" p-id="1600" xmlns:xlink="http://www.w3.org/1999/xlink" width="200" height="200"><path d="M856.576 557.568H167.424c-22.528 0-41.472-18.432-41.472-41.472v-8.192c0-22.528 18.432-41.472 41.472-41.472h688.64c22.528 0 41.472 18.432 41.472 41.472v8.192c0 22.528-18.432 41.472-40.96 41.472z" fill="" p-id="1601"></path><path d="M557.568 167.424v688.64c0 22.528-18.432 41.472-41.472 41.472h-8.192c-22.528 0-41.472-18.432-41.472-41.472V167.424c0-22.528 18.432-41.472 41.472-41.472h8.192c22.528 0.512 41.472 18.944 41.472 41.472z" fill="" p-id="1602"></path></svg>