<?xml version="1.0" standalone="no"?><!DOCTYPE svg PUBLIC "-//W3C//DTD SVG 1.1//EN" "http://www.w3.org/Graphics/SVG/1.1/DTD/svg11.dtd"><svg t="1705420958540" class="icon" viewBox="0 0 1024 1024" version="1.1" xmlns="http://www.w3.org/2000/svg" p-id="2538" xmlns:xlink="http://www.w3.org/1999/xlink" width="200" height="200"><path d="M138.124726 1017.879259C70.082487 1017.879259 14.587766 962.384539 14.485754 894.240287V129.759713C14.587766 61.717474 70.082487 6.222754 138.124726 6.120741h564.0263c68.144252 0.102012 123.53696 55.596732 123.638972 123.638972v238.708906c0 20.606495-16.832038 37.438534-37.438534 37.438534S751.014943 389.177127 751.014943 368.468619v-238.708906c0-26.829249-21.932656-48.761905-48.761905-48.761905h-564.128312c-26.931261 0-48.761905 21.932656-48.863917 48.761905v764.480574c0 26.931261 21.932656 48.761905 48.761905 48.761905h289.103008c20.606495 0 37.438534 16.832038 37.438534 37.438533s-16.832038 37.438534-37.438534 37.438534H138.124726z" p-id="2539"></path><path d="M165.362024 291.857342c-20.606495 0-37.438534-16.832038-37.438533-37.438533 0-20.606495 16.730026-37.438534 37.438533-37.438534h516.590556c20.606495 0 37.438534 16.832038 37.438534 37.438534 0 9.997211-3.876469 19.382347-10.915322 26.523211-7.038852 7.038852-16.423989 11.017334-26.421199 11.017334H165.362024zM165.362024 517.304642c-20.606495 0-37.438534-16.832038-37.438533-37.438533 0-20.606495 16.730026-37.438534 37.438533-37.438534h302.364615c20.606495 0 37.438534 16.832038 37.438533 37.438534 0 9.997211-3.876469 19.382347-10.915321 26.523212-7.038852 7.038852-16.423989 11.017334-26.4212 11.017334H165.362024zM165.362024 742.751943c-20.606495 0-37.438534-16.832038-37.438533-37.438534 0-20.606495 16.730026-37.438534 37.438533-37.438534h128.943615c20.606495 0 37.438534 16.832038 37.438533 37.438534 0 9.997211-3.876469 19.382347-10.915322 26.523212-7.038852 7.038852-16.423989 11.017334-26.421199 11.017334H165.362024zM702.7631 450.996613c5.100618-2.856346 22.850767-5.304642 22.850767-5.304642 9.181112-2.142259 18.668261-3.264395 28.053397-3.264396 27.543335 0 54.678621 9.385136 76.509265 26.523212 22.442718 17.648137 37.744571 41.62104 44.171349 69.470412 8.773062 38.15262-1.020124 78.651524-26.421199 108.439132l-3.672445 4.284519 48.863917 151.896393h23.870891c51.006177 0 92.525204 41.519028 92.525204 92.525204v29.583583c-0.102012 51.006177-41.519028 92.423192-92.525204 92.525204H590.651524c-51.006177-0.102012-92.423192-41.519028-92.525204-92.525204v-29.583583c0.102012-51.006177 41.519028-92.423192 92.525204-92.525204h18.872286l51.312213-154.650727-3.46842-4.284519c-20.81052-25.707113-30.297669-58.045029-26.727236-90.893006 3.570432-32.847978 19.688384-62.43156 45.395497-83.24208l2.754333-2.14226m-88.44471 410.191672c-9.589161 0.204025-17.240088 7.956964-17.444112 17.546124v29.88962c0.204025 9.589161 7.956964 17.240088 17.444112 17.444112h326.847579c8.467025-0.204025 15.505878-6.222754 17.138076-14.587766l0.204024-1.020124v-31.827854c-0.204025-9.589161-7.956964-17.240088-17.444112-17.444112h-51.312214c-16.321976 0-30.705718-10.507272-35.602311-26.01315L765.296673 650.328751c-5.100618-15.913927 1.122136-33.562064 15.097828-42.845189l0.918111-0.612074c22.442718-15.199841 28.257422-45.803547 13.057581-68.144251-9.181112-13.465631-24.27894-21.422594-40.600916-21.422595-9.793186 0-19.382347 2.958358-27.543336 8.467026-10.813309 7.344889-18.158199 18.464236-20.606495 31.419804-2.448296 12.853556 0.204025 25.911138 7.650927 36.724448 3.162383 4.692568 7.140865 8.773062 11.833433 12.13947l1.122135 0.816098 0.204025 0.204025 0.714087 0.510062c16.526001 11.935445 20.708508 34.480175 9.385136 51.516238l-0.714086 1.122136-63.757721 192.191273c-4.998605 15.403865-19.280335 25.707113-35.398287 25.707113l-46.313608-0.102012z" p-id="2540"></path></svg>