<?xml version="1.0" standalone="no"?><!DOCTYPE svg PUBLIC "-//W3C//DTD SVG 1.1//EN" "http://www.w3.org/Graphics/SVG/1.1/DTD/svg11.dtd"><svg t="1711269097713" class="icon" viewBox="0 0 1037 1024" version="1.1" xmlns="http://www.w3.org/2000/svg" p-id="6227" xmlns:xlink="http://www.w3.org/1999/xlink" width="202.5390625" height="200"><path d="M925.991521 1022.270176c-4.731906 0-9.486132-0.669609-14.173397-2.019988-13.403346-3.861414-24.373778-12.767217-30.891308-25.099188L734.1373 717.642592c-2.923961-4.843507-7.979511-8.169233-13.593068-8.905804L606.219607 693.681739a22.308033 22.308033 0 0 1-18.804861-16.996915l-40.667604-172.011466c-2.265511-9.597733 2.019988-19.541431 10.557506-24.463059l51.21395-29.57441a22.349326 22.349326 0 0 1 16.941115-2.232031c5.713999 1.528941 10.590987 5.267593 13.548428 10.401264l30.121258 52.173724c3.973015 6.874655 12.789537 9.240608 19.664193 5.267593 6.874655-3.973015 9.240608-12.789537 5.267593-19.664193l-30.121258-52.173723c-2.957441-5.122511-3.760972-11.215956-2.232031-16.941115s5.267593-10.590987 10.401264-13.548428l51.21395-29.57441a22.315845 22.315845 0 0 1 26.471888 3.091363l128.631943 121.232761c6.740733 6.361288 8.861163 16.226865 5.312234 24.786704l-44.127252 106.534837c-2.16507 5.234113-1.819105 11.282916 0.915133 16.226865l166.933595 265.879527c7.410343 11.807444 9.653534 25.768797 6.294327 39.306065s-11.863245 24.831344-23.938532 31.795281l-38.480214 22.219868c-7.856749 4.531023-16.539349 6.841175-25.333551 6.841175zM627.301139 651.429393l99.057534 13.046221c19.396349 2.555675 36.817351 14.195717 46.593646 31.136832 0.133922 0.234363 0.267844 0.479887 0.401765 0.72541L920.377963 974.281511c1.026734 1.930707 2.622636 2.734238 3.783293 3.069042s2.946281 0.502207 4.832347-0.591488l38.480213-22.219868c1.897226-1.093695 2.644957-2.723078 2.935121-3.894894s0.390605-2.957441-0.770051-4.810027L802.437448 679.530663c-0.145082-0.234363-0.290164-0.468726-0.424086-0.70309-9.787456-16.941115-11.148995-37.855245-3.660531-55.923535l38.23469-92.30564-105.340701-99.280737-17.499122 10.09994 18.961103 32.844336c16.271506 28.190551 6.584491 64.360613-21.60606 80.643278-28.201711 16.271506-64.371773 6.584491-80.643278-21.60606l-18.961103-32.844335-17.499123 10.09994 33.301902 140.863473zM75.431486 297.060999v-176.776851c0-15.914381 12.94578-28.86016 28.86016-28.86016h176.096082c12.331971 0 22.32031-9.988339 22.32031-22.32031s-9.988339-22.32031-22.32031-22.320309H104.291646c-40.533682 0-73.500779 32.978257-73.500779 73.500779v176.776851c0 12.331971 9.988339 22.32031 22.32031 22.32031s22.32031-9.988339 22.320309-22.32031z m227.968481 624.343698c0-12.331971-9.988339-22.32031-22.320309-22.320309H104.291646c-15.914381 0-28.86016-12.94578-28.86016-28.86016V694.128146c0-12.331971-9.988339-22.32031-22.320309-22.32031s-22.32031 9.988339-22.32031 22.32031v176.096082c0 40.533682 32.978257 73.500779 73.500779 73.500779h176.776852c12.331971 0 22.32031-9.988339 22.320309-22.32031zM927.743665 296.38023V120.284148c0-40.533682-32.978257-73.500779-73.500779-73.500779h-176.776851c-12.331971 0-22.32031 9.988339-22.32031 22.320309s9.988339 22.32031 22.32031 22.32031h176.776851c15.914381 0 28.86016 12.94578 28.86016 28.86016v176.096082c0 12.331971 9.988339 22.32031 22.32031 22.320309s22.32031-9.988339 22.320309-22.320309z m-227.968481-51.258591c0-12.331971-9.988339-22.32031-22.32031-22.320309H218.393068c-12.331971 0-22.32031 9.988339-22.320309 22.320309s9.988339 22.32031 22.320309 22.32031h459.061806c12.331971 0 22.32031-9.988339 22.32031-22.32031zM476.002921 432.455997c0-12.331971-9.988339-22.32031-22.32031-22.32031H218.393068c-12.331971 0-22.32031 9.988339-22.320309 22.32031s9.988339 22.32031 22.320309 22.320309h235.289543c12.331971 0 22.32031-9.988339 22.32031-22.320309z m0 187.334358c0-12.331971-9.988339-22.32031-22.32031-22.32031H218.393068c-12.331971 0-22.32031 9.988339-22.320309 22.32031s9.988339 22.32031 22.320309 22.320309h235.289543c12.331971 0 22.32031-9.988339 22.32031-22.320309z" p-id="6228"></path></svg>