<?xml version="1.0" standalone="no"?><!DOCTYPE svg PUBLIC "-//W3C//DTD SVG 1.1//EN" "http://www.w3.org/Graphics/SVG/1.1/DTD/svg11.dtd"><svg t="1707741503911" class="icon" viewBox="0 0 1024 1024" version="1.1" xmlns="http://www.w3.org/2000/svg" p-id="1523" xmlns:xlink="http://www.w3.org/1999/xlink" width="200" height="200"><path d="M640 513.1c10.3-6 18.6-23.2 1.2-31.4-5.9-2.7-12-5.2-18.1-7.6C666.5 435.2 694 378.9 694 316c0-117.2-95.1-212.3-212.3-212.3S269.4 198.8 269.4 316c0 62.9 27.5 119.2 70.9 158.1-128.6 50.5-223.5 167.9-242 309.4-0.2 1.7-0.3 3.4-0.3 5.1 0 26.7 21.6 48.4 48.4 48.4H549c-18.5-34.2-29.1-73.4-29.1-115 0.1-89.2 48.4-167 120.1-208.9z" p-id="1524"></path><path d="M761.7 523.4c-109.4 0-198.5 89-198.5 198.5 0 109.4 89 198.5 198.5 198.5s198.5-89 198.5-198.5c0-109.4-89-198.5-198.5-198.5z m-14.4 304.4c0 9.4-7.7 17.1-17.1 17.1h-77.1c-9.4 0-17.1-7.7-17.1-17.1v-77.2c0-9.4 7.7-17.1 17.1-17.1h77.4c9.3 0 17.1 7.7 16.8 17.1v77.2z m-1.1-190L689 695c-2.2 2.2-4.8 3.3-7.8 3.3-3.1 0-5.7-1.2-7.8-3.3L639 660.7c-4.2-4.5-4.2-11.2 0.1-15.5l0.1-0.1c2.2-2 4.9-3.1 7.8-3.1 2.9 0 5.7 1.2 7.8 3.2l26.6 26.5 49.4-49.8c2.2-2 4.9-3.1 7.8-3.1 2.9 0 5.7 1.2 7.7 3.3 2.1 2 3.2 4.8 3.2 7.8s-1.2 5.8-3.3 7.9z m141.3 190c0 9.4-7.7 17.1-17.1 17.1h-77.1c-9.4 0-17.1-7.7-17.1-17.1v-77.2c0-9.4 7.7-17.1 17.1-17.1h77.4c9.3 0 17.1 7.7 16.8 17.1v77.2z m0-134.6c0 9.4-7.7 17.1-17.1 17.1h-77.1c-9.4 0-17.1-7.7-17.1-17.1V616c0-9.4 7.7-17.1 17.1-17.1h77.4c9.3 0 17.1 7.7 16.8 17.1v77.2z" p-id="1525"></path><path d="M730.5 733.5h-77.4c-9.4 0-17.1 7.7-17.1 17.1v77.2c0 9.4 7.7 17.1 17.1 17.1h77.1c9.4 0 17.1-7.7 17.1-17.1v-77.2c0.3-9.4-7.5-17.1-16.8-17.1zM738.7 618.7c-2.9 0-5.6 1.1-7.8 3.1l-49.4 49.8-26.6-26.5c-2-2-4.8-3.2-7.8-3.2-2.9 0-5.6 1.1-7.8 3.1l-0.1 0.1c-4.3 4.3-4.3 11-0.1 15.5l34.3 34.3c2.1 2.1 4.7 3.3 7.8 3.3 3 0 5.6-1.1 7.8-3.3l57.2-57.2c2.1-2.1 3.4-4.9 3.4-7.9s-1.1-5.8-3.2-7.8c-1.9-2.1-4.8-3.3-7.7-3.3zM870.7 733.5h-77.4c-9.4 0-17.1 7.7-17.1 17.1v77.2c0 9.4 7.7 17.1 17.1 17.1h77.1c9.4 0 17.1-7.7 17.1-17.1v-77.2c0.3-9.4-7.5-17.1-16.8-17.1zM870.7 598.9h-77.4c-9.4 0-17.1 7.7-17.1 17.1v77.2c0 9.4 7.7 17.1 17.1 17.1h77.1c9.4 0 17.1-7.7 17.1-17.1V616c0.3-9.4-7.5-17.1-16.8-17.1z" fill="#FFFFFF" p-id="1526"></path></svg>