<?xml version="1.0" standalone="no"?><!DOCTYPE svg PUBLIC "-//W3C//DTD SVG 1.1//EN" "http://www.w3.org/Graphics/SVG/1.1/DTD/svg11.dtd"><svg t="1705420975321" class="icon" viewBox="0 0 1024 1024" version="1.1" xmlns="http://www.w3.org/2000/svg" p-id="2946" xmlns:xlink="http://www.w3.org/1999/xlink" width="200" height="200"><path d="M294.43 741.63c-74.81 0-135.67-60.89-135.67-135.7s60.86-135.7 135.67-135.7c74.87 0 135.73 60.89 135.73 135.7s-60.87 135.7-135.73 135.7z m0-212.61c-42.37 0-76.88 34.51-76.88 76.91s34.51 76.91 76.88 76.91c42.43 0 76.94-34.51 76.94-76.91s-34.51-76.91-76.94-76.91z" p-id="2947"></path><path d="M487.46 945.94c-16.25 0-29.4-13.15-29.4-29.4 0-90.23-73.43-163.63-163.63-163.63S130.8 826.32 130.8 916.54c0 16.25-13.15 29.4-29.4 29.4S72 932.79 72 916.55c0-122.64 99.79-222.43 222.43-222.43s222.43 99.79 222.43 222.43c-0.01 16.24-13.16 29.39-29.4 29.39zM217.15 409.54c-16.25 0-29.4-13.15-29.4-29.4V247.12c0-48.63 39.56-88.19 88.19-88.19h84.63c16.25 0 29.4 13.15 29.4 29.4s-13.15 29.4-29.4 29.4h-84.63c-16.19 0-29.4 13.18-29.4 29.4v133.03c0 16.23-13.15 29.38-29.39 29.38zM863.81 951.6H665.15c-16.25 0-29.4-13.15-29.4-29.4s13.15-29.4 29.4-29.4h198.66c16.19 0 29.4-13.18 29.4-29.4V247.12c0-16.22-13.21-29.4-29.4-29.4h-84.57c-16.25 0-29.4-13.15-29.4-29.4s13.15-29.4 29.4-29.4h84.57c48.63 0 88.19 39.56 88.19 88.19V863.4c0 48.64-39.56 88.2-88.19 88.2zM708.45 211.95h-58.79v-51.36c0-16.22-13.21-29.4-29.4-29.4H519.49c-16.19 0-29.4 13.18-29.4 29.4v51.36H431.3v-51.36c0-48.63 39.56-88.19 88.19-88.19h100.76c48.63 0 88.19 39.56 88.19 88.19v51.36z" p-id="2948"></path><path d="M771.32 339.61H377.2" fill="#FFFFFF" p-id="2949"></path><path d="M771.31 369.01h-394.1c-16.25 0-29.4-13.15-29.4-29.4s13.15-29.4 29.4-29.4h394.1c16.25 0 29.4 13.15 29.4 29.4s-13.15 29.4-29.4 29.4z" p-id="2950"></path><path d="M771.32 525.34h-163.4" fill="#FFFFFF" p-id="2951"></path><path d="M771.31 554.75h-163.4c-16.25 0-29.4-13.15-29.4-29.4s13.15-29.4 29.4-29.4h163.4c16.25 0 29.4 13.15 29.4 29.4s-13.15 29.4-29.4 29.4z" p-id="2952"></path></svg>