<?xml version="1.0" standalone="no"?><!DOCTYPE svg PUBLIC "-//W3C//DTD SVG 1.1//EN" "http://www.w3.org/Graphics/SVG/1.1/DTD/svg11.dtd"><svg t="1712410634499" class="icon" viewBox="0 0 1024 1024" version="1.1" xmlns="http://www.w3.org/2000/svg" p-id="6221" xmlns:xlink="http://www.w3.org/1999/xlink" width="200" height="200"><path d="M869.934545 62.138182H153.832727a104.727273 104.727273 0 0 0-104.727272 104.727273v512a104.96 104.96 0 0 0 104.96 104.96H477.090909v108.218181H234.123636a34.909091 34.909091 0 0 0 0 69.818182H791.272727a34.909091 34.909091 0 0 0 0-69.818182H546.909091v-107.985454h323.025454a104.96 104.96 0 0 0 104.96-104.96v-512a104.96 104.96 0 0 0-104.96-104.96z m35.141819 616.96a35.141818 35.141818 0 0 1-35.141819 35.141818H154.065455a35.141818 35.141818 0 0 1-35.141819-35.141818v-512a34.909091 34.909091 0 0 1 34.909091-34.909091h716.101818a34.909091 34.909091 0 0 1 35.141819 34.909091z" p-id="6222"></path><path d="M546.909091 434.734545v-166.632727a34.909091 34.909091 0 1 0-69.818182 0v166.4a62.836364 62.836364 0 0 0 0 104.727273v48.64a34.909091 34.909091 0 1 0 69.818182 0v-49.105455a62.138182 62.138182 0 0 0 27.694545-51.898181 62.836364 62.836364 0 0 0-27.694545-52.13091zM327.912727 316.741818v-48.64a34.909091 34.909091 0 0 0-69.818182 0v49.105455a62.603636 62.603636 0 0 0 0 104.029091v166.632727a34.909091 34.909091 0 0 0 69.818182 0v-166.167273a63.069091 63.069091 0 0 0 0-104.96zM772.189091 316.741818v-48.64a34.909091 34.909091 0 0 0-69.818182 0v49.105455a62.603636 62.603636 0 0 0 0 104.029091v166.632727a34.909091 34.909091 0 0 0 69.818182 0v-166.167273a63.069091 63.069091 0 0 0 0-104.96z" p-id="6223"></path></svg>