<?xml version="1.0" standalone="no"?><!DOCTYPE svg PUBLIC "-//W3C//DTD SVG 1.1//EN" "http://www.w3.org/Graphics/SVG/1.1/DTD/svg11.dtd"><svg t="1711384899464" class="icon" viewBox="0 0 1024 1024" version="1.1" xmlns="http://www.w3.org/2000/svg" p-id="24163" xmlns:xlink="http://www.w3.org/1999/xlink" width="200" height="200"><path d="M852.48 155.648h-337.92c-11.264 0-20.992 9.728-20.992 20.992v698.368c0 11.264 9.728 20.992 20.992 20.992h337.92c11.264 0 20.992-9.728 20.992-20.992V176.64c0-11.264-9.728-20.992-20.992-20.992z m-218.112 176.64c0 3.584-3.584 7.68-7.68 7.68h-70.144c-3.584 0-7.68-3.584-7.68-7.68V273.408c0-3.584 3.584-7.68 7.68-7.68h70.144v-2.048c3.584 0 7.68 3.584 7.68 7.68v60.928zM818.176 506.88c0 3.584-3.584 7.68-7.68 7.68h-70.144c-3.584 0-7.68-3.584-7.68-7.68V445.952c0-3.584 3.584-7.68 7.68-7.68h70.144c3.584 0 7.68 3.584 7.68 7.68V506.88z m0-172.544c0 3.584-3.584 7.68-7.68 7.68h-70.144c-3.584 0-7.68-3.584-7.68-7.68V273.408c0-3.584 3.584-7.68 7.68-7.68h70.144c5.632-2.048 7.68 2.048 7.68 7.68v60.928zM153.088 396.8c-14.336 0-25.088 11.264-25.088 26.624s12.288 26.624 25.088 26.624h256c14.336 0 25.088-11.264 25.088-26.624s-12.288-26.624-25.088-26.624h-256zM130.56 534.528V870.4c0 13.824 11.264 25.6 25.6 25.6h68.096v-159.232c0-31.232 25.6-56.832 56.832-56.832s56.832 25.6 56.832 56.832V896h68.096c13.824 0 25.6-11.264 25.6-25.6v-336.384c0-13.824-11.264-25.6-25.6-25.6H156.16c-14.336 0.512-25.6 11.776-25.6 26.112z" p-id="24164"></path></svg>