<?xml version="1.0" standalone="no"?><!DOCTYPE svg PUBLIC "-//W3C//DTD SVG 1.1//EN" "http://www.w3.org/Graphics/SVG/1.1/DTD/svg11.dtd"><svg t="1711384988897" class="icon" viewBox="0 0 1024 1024" version="1.1" xmlns="http://www.w3.org/2000/svg" p-id="27064" xmlns:xlink="http://www.w3.org/1999/xlink" width="200" height="200"><path d="M585.139785 73.139787 438.860211 73.139787l0 73.139787 146.279574 0L585.139785 73.139787zM329.15053 219.419362c20.196994 0 36.569894-16.372899 36.569894-36.569894L365.720424 36.569894c0-20.196994-16.372899-36.569894-36.569894-36.569894-20.196994 0-36.569894 16.372899-36.569894 36.569894l0 146.279574C292.580636 203.046462 308.953536 219.419362 329.15053 219.419362zM694.849466 219.419362c20.196994 0 36.569894-16.372899 36.569894-36.569894L731.41936 36.569894c0-20.196994-16.372899-36.569894-36.569894-36.569894-20.196994 0-36.569894 16.372899-36.569894 36.569894l0 146.279574C658.279572 203.046462 674.652472 219.419362 694.849466 219.419362zM877.698934 73.139787l-73.139787 0 0 73.139787 73.139787 0c40.393989 0 73.139787 32.745798 73.139787 73.139787l0 73.139787L73.161275 292.559149l0-73.139787c0-40.393989 32.745798-73.139787 73.139787-73.139787l73.139787 0L219.440849 73.139787l-73.139787 0c-80.787978 0-146.279574 65.491597-146.279574 146.279574l0 658.258085c0 80.787978 65.491597 146.279574 146.279574 146.279574l731.397872 0c80.787978 0 146.279574-65.491597 146.279574-146.279574L1023.978509 219.419362C1023.978509 138.631384 958.486912 73.139787 877.698934 73.139787zM950.838721 877.677447c0 40.393989-32.745798 73.139787-73.139787 73.139787l-731.397872 0c-40.393989 0-73.139787-32.745798-73.139787-73.139787L73.161275 365.698936l877.677447 0L950.838721 877.677447zM485.179143 530.691711l0 327.700507 51.426253 0L536.605396 437.838953l-33.141818 0c-8.954953 18.09717-24.190959 36.762275-45.712111 55.997362-21.526269 19.240203-46.667879 35.619242-75.425853 49.14121l0 49.712215c15.999392-5.901407 34.043351-14.758122 54.141084-26.570145C456.560338 554.311665 472.796114 542.503734 485.179143 530.691711z" fill="#999999" p-id="27065"></path></svg>