<?xml version="1.0" standalone="no"?><!DOCTYPE svg PUBLIC "-//W3C//DTD SVG 1.1//EN" "http://www.w3.org/Graphics/SVG/1.1/DTD/svg11.dtd"><svg t="1711385191564" class="icon" viewBox="0 0 1024 1024" version="1.1" xmlns="http://www.w3.org/2000/svg" p-id="29758" xmlns:xlink="http://www.w3.org/1999/xlink" width="200" height="200"><path d="M994.378175 168.459078l-19.386642-6.502352c-13.486359-3.37159-26.972719-4.936971-40.579492-5.779868h0.120414c-142.810913-9.873942-225.29445 22.758231-269.606773 52.259642 0 0-99.702728 60.688617-139.318909 188.809032-6.984008-22.276576-17.941675-43.951082-29.140169-60.688618-25.888993-45.275635-58.159925-77.546566-96.933208-103.435559-77.546566-51.777987-168.097836-77.546566-258.649106-77.546567-25.888993 0-51.777987 0-77.546567 6.502352L43.951082 168.579492s-2.408278 10.11477-2.649106 31.668862v-0.120414 3.612417c0 3.251176 0.120414 6.622766 0.240827 10.355598 0.842897 31.789276 5.53904 112.466604 29.862653 171.228598v-0.361242c6.14111 16.015052 13.365945 31.789276 22.156162 46.841016 0.963311 2.047037 58.039511 115.838194 231.194732 167.857009 26.611477 7.345249 80.075259 18.664158 165.44873 21.79492v310.306679h64.662277V524.041392c38.773283 6.502352 77.546566 12.88429 109.937911 12.88429 96.933208 6.502352 187.484478-25.888993 252.146755-90.55127 39.014111-47.804327 66.348071-107.168391 76.222013-168.459078v0.481656c10.957667-46.600188 1.204139-109.937912 1.204139-109.937912zM156.176858 422.171214c-0.963311-1.324553-1.926623-2.649106-2.76952-3.97366-0.120414-0.240828-0.240828-0.240828-0.240828-0.481656-60.447789-91.15334-51.055503-203.981185-51.055503-203.981185h38.773283c77.546566 0 155.213547 25.888993 219.875823 64.662277 32.270931 19.386642 58.159925 51.777987 77.546566 84.048918 19.386642 32.270931 32.270931 64.662277 38.773283 96.933208 6.502352 32.270931 12.88429 64.662277 12.88429 96.933208-216.745061 9.633114-314.400753-107.288805-333.787394-134.14111z m764.507996-81.399812c-5.057385 10.957667-28.056444 56.47413-70.321731 88.263405-29.862653 20.711195-63.337723 35.762935-98.498589 45.034807-83.80809 18.543744-187.364064-2.889934-187.604891-2.889934 6.863594-16.978363 13.606773-33.836312 20.470366-49.610536l-0.120414 0.120414s0.120414-0.842897 0.481656-2.287865c13.606773-34.67921 69.960489-157.621825 195.793039-194.829727 3.612418-0.722484 7.224835-1.565381 10.957667-2.047037l2.76952-0.361241c32.993415-6.14111 66.829727-8.308561 102.713076-8.308561h45.275635c3.973659 43.710254-4.334901 87.540922-21.915334 126.916275z" p-id="29759"></path></svg>