<?xml version="1.0" standalone="no"?><!DOCTYPE svg PUBLIC "-//W3C//DTD SVG 1.1//EN" "http://www.w3.org/Graphics/SVG/1.1/DTD/svg11.dtd"><svg t="1710732151213" class="icon" viewBox="0 0 1024 1024" version="1.1" xmlns="http://www.w3.org/2000/svg" p-id="1485" xmlns:xlink="http://www.w3.org/1999/xlink" width="200" height="200"><path d="M826.88 90.112h-73.728C741.376 40.96 697.344 5.632 646.656 5.632H376.832C324.608 5.632 282.112 40.96 270.336 90.112H197.12c-64 0-116.224 52.224-116.224 118.272v691.712c0 65.536 52.224 118.272 116.224 118.272h629.76c64 0 116.224-52.224 116.224-118.272V208.384c0-66.048-52.224-118.272-116.224-118.272z m-492.032 25.6c0-23.552 18.432-41.984 41.984-41.984h269.824c23.552 0 41.984 18.432 41.984 41.984v16.896c0 23.552-18.432 41.984-41.984 41.984H376.832c-23.552 0-41.984-18.432-41.984-41.984v-16.896z m541.184 784.384c0 28.672-22.016 50.688-49.152 50.688h-629.76c-27.136 0-49.152-22.016-49.152-50.688V208.384c0-28.672 22.016-50.688 49.152-50.688h73.728c11.776 49.152 55.808 84.48 106.496 84.48h269.824c52.224 0 94.72-35.328 106.496-84.48h73.728c27.136 0 49.152 22.016 49.152 50.688v691.712z m0 0" p-id="1486"></path><path d="M691.712 396.8H324.096c-18.432 0-32.256-15.36-32.256-33.792 0-18.432 15.36-33.792 32.256-33.792H691.2c18.432 0 32.256 15.36 32.256 33.792 0 18.432-13.312 33.792-31.744 33.792z" p-id="1487"></path><path d="M512 818.688c87.552 0 158.72-71.168 158.72-158.72s-71.168-158.72-158.72-158.72-158.72 71.168-158.72 158.72 71.168 158.72 158.72 158.72z m0 52.736c-116.736 0-211.456-94.72-211.456-211.456S395.264 448 512 448c116.736 0 211.456 94.72 211.456 211.456s-94.72 211.968-211.456 211.968z" p-id="1488"></path><path d="M538.624 721.92l6.656-192H476.16l6.656 192zM545.792 756.224c-1.536-5.12-5.12-8.192-7.68-10.752-3.584-3.584-7.68-6.144-12.288-7.68h-1.024c-3.584-1.024-7.68-2.56-13.312-2.56s-10.24 1.536-14.336 2.56c-4.096 1.536-8.704 4.608-12.288 7.68-3.072 3.072-6.144 6.144-7.68 11.264l-0.512 1.024c-1.024 3.584-2.048 7.168-2.048 11.776 0 5.12 1.024 8.192 2.048 11.264l0.512 2.048c1.536 5.12 5.12 8.192 7.68 10.752h1.536c1.024 0.512 1.536 1.024 2.56 1.536 2.56 2.048 5.12 4.096 9.216 5.12h1.024c3.584 1.024 7.68 2.56 13.312 2.56 6.144 0 10.24-1.536 14.336-2.56 4.096-1.536 9.216-4.608 12.288-7.68 3.072-3.072 6.144-6.144 7.68-11.264l0.512-1.024c1.024-3.584 2.048-7.168 2.048-11.264-0.512-4.608-2.048-9.216-3.584-12.8z" p-id="1489"></path></svg>